<svg width="258" height="278" viewBox="0 0 258 278" fill="none" xmlns="http://www.w3.org/2000/svg">
<path d="M75.6741 37.5388L129.132 6.67676L182.591 37.5388V99.2674L129.132 130.127L75.6741 99.2674V37.5388Z" stroke="#AA6235" stroke-width="4" stroke-miterlimit="10"/>
<path d="M75.6759 43.8605C79.3624 43.8605 82.3508 40.872 82.3508 37.1856C82.3508 33.4991 79.3624 30.5106 75.6759 30.5106C71.9894 30.5106 69.001 33.4991 69.001 37.1856C69.001 40.872 71.9894 43.8605 75.6759 43.8605Z" fill="#7C9D3D"/>
<path d="M135.805 6.67671C135.805 10.3604 132.821 13.3508 129.132 13.3508C125.445 13.3508 122.453 10.3604 122.453 6.67671C122.453 2.98686 125.446 0 129.132 0C132.821 0 135.805 2.98686 135.805 6.67671Z" fill="#7C9D3D"/>
<path d="M189.264 37.1855C189.264 40.8727 186.274 43.8622 182.591 43.8622C178.903 43.8622 175.912 40.8736 175.912 37.1855C175.912 33.4992 178.904 30.5044 182.591 30.5044C186.274 30.5044 189.264 33.4992 189.264 37.1855Z" fill="#7C9D3D"/>
<path d="M82.3499 99.459C82.3499 95.7683 79.3613 92.7805 75.6732 92.7805C71.9851 92.7805 69 95.7683 69 99.459C69 103.144 71.9851 106.136 75.6732 106.136C79.3613 106.136 82.3499 103.144 82.3499 99.459Z" fill="#7C9D3D"/>
<path d="M135.805 129.966C135.805 126.282 132.821 123.294 129.132 123.294C125.445 123.294 122.453 126.282 122.453 129.966C122.453 133.656 125.446 136.646 129.132 136.646C132.821 136.646 135.805 133.656 135.805 129.966Z" fill="#7C9D3D"/>
<path d="M189.264 99.459C189.264 95.7683 186.274 92.7805 182.591 92.7805C178.903 92.7805 175.912 95.7683 175.912 99.459C175.912 103.144 178.904 106.136 182.591 106.136C186.274 106.136 189.264 103.144 189.264 99.459Z" fill="#7C9D3D"/>
<path d="M118.962 73.9515C124.137 77.2378 132.196 85.158 130.634 87.6008C129.081 90.048 118.498 86.1003 113.327 82.8096C108.157 79.5181 98.7582 70.7518 100.313 68.3019C101.874 65.8556 113.797 70.6591 118.962 73.9515Z" fill="#7C9C3D" stroke="#7C9C3D" stroke-miterlimit="10"/>
<path d="M148.057 73.2397C143.031 80.0038 131.374 90.2626 128.175 87.8799C124.976 85.5015 131.449 71.3833 136.481 64.6253C141.508 57.8639 154.463 45.8599 157.662 48.2365C160.861 50.6175 153.088 66.4862 148.057 73.2397Z" fill="white" stroke="white" stroke-miterlimit="10"/>
<path d="M29.9729 245.384H25.5986L22.4722 236.991H9.70709L6.75805 245.384H2.38379L14.0617 214.728H18.297L29.9729 245.384ZM21.244 233.527L16.6125 220.782C16.4686 220.372 16.3099 219.66 16.1394 218.644H16.0408C15.895 219.569 15.7294 220.28 15.5441 220.782L10.953 233.527H21.244Z" fill="white" stroke="white" stroke-width="2.42" stroke-miterlimit="10"/>
<path d="M57.007 243.285C53.9466 245.027 50.489 245.897 46.6351 245.897C42.2037 245.897 38.6327 244.496 35.9203 241.692C33.2097 238.888 31.8545 235.143 31.8545 230.459C31.8545 225.723 33.3507 221.83 36.3461 218.783C39.3414 215.734 43.1805 214.212 47.8642 214.212C51.175 214.212 53.9802 214.738 56.2747 215.794V220.068C53.8225 218.524 50.9 217.752 47.5074 217.752C44.1691 217.752 41.4201 218.892 39.2567 221.178C37.0932 223.459 36.0089 226.467 36.0089 230.2C36.0089 234.04 37.0064 237.029 38.9984 239.166C40.9904 241.303 43.6822 242.372 47.0738 242.372C49.4068 242.372 51.3938 241.923 53.028 241.026V232.734H46.3789V229.232H57.007V243.285V243.285Z" fill="white" stroke="white" stroke-width="2.42" stroke-miterlimit="10"/>
<path d="M86.3546 245.384H81.6846L76.5987 236.872C75.5845 235.171 74.652 234.012 73.8093 233.401C72.9646 232.786 71.9554 232.479 70.7815 232.479H67.93V245.384H63.9717V214.728H73.3145C76.2961 214.728 78.6321 215.446 80.3195 216.883C82.0079 218.323 82.8526 220.336 82.8526 222.92C82.8526 227.169 80.5827 229.925 76.0458 231.194V231.293C76.8905 231.648 77.6188 232.158 78.2309 232.816C78.845 233.476 79.6404 234.603 80.6162 236.202L86.3546 245.384ZM67.93 218.19V229.016H72.6019C74.4076 229.016 75.8762 228.487 77.0048 227.432C78.1333 226.378 78.6971 224.992 78.6971 223.277C78.6971 221.68 78.1816 220.433 77.1536 219.534C76.1256 218.638 74.6264 218.19 72.66 218.19H67.93V218.19Z" fill="white" stroke="white" stroke-width="2.42" stroke-miterlimit="10"/>
<path d="M88.0173 230.421C88.0173 225.472 89.3568 221.536 92.0368 218.607C94.7148 215.677 98.3409 214.214 102.919 214.214C107.183 214.214 110.612 215.644 113.21 218.507C115.809 221.369 117.108 225.097 117.108 229.689C117.108 234.663 115.776 238.607 113.11 241.524C110.446 244.439 106.882 245.898 102.423 245.898C98.0689 245.898 94.5807 244.466 91.9569 241.604C89.3302 238.739 88.0173 235.011 88.0173 230.421ZM92.1718 230.104C92.1718 233.811 93.1209 236.782 95.0134 239.021C96.9078 241.256 99.3778 242.374 102.425 242.374C105.698 242.374 108.266 241.301 110.131 239.158C111.999 237.015 112.934 234.015 112.934 230.163C112.934 226.205 112.02 223.152 110.195 220.999C108.365 218.85 105.863 217.774 102.684 217.774C99.5572 217.774 97.0221 218.91 95.0853 221.18C93.1446 223.448 92.1718 226.422 92.1718 230.104Z" fill="white" stroke="white" stroke-width="2.42" stroke-miterlimit="10"/>
<path d="M124.098 245.375V214.25H133.24C135.971 214.25 138.154 214.902 139.79 216.21C141.422 217.515 142.238 219.246 142.238 221.402C142.238 223.117 141.755 224.632 140.783 225.942C139.813 227.257 138.476 228.187 136.773 228.736V228.818C138.89 229.059 140.581 229.86 141.849 231.218C143.112 232.578 143.749 234.303 143.749 236.392C143.749 239.072 142.786 241.238 140.863 242.893C138.942 244.547 136.48 245.376 133.479 245.376H124.098V245.375ZM128.117 217.764V227.51H131.773C133.717 227.51 135.238 227.038 136.345 226.095C137.448 225.149 138.003 223.841 138.003 222.167C138.003 219.233 136.048 217.764 132.136 217.764H128.117ZM128.117 231.007V241.858H132.938C135.042 241.858 136.667 241.372 137.81 240.403C138.957 239.43 139.529 238.081 139.529 236.353C139.529 232.79 137.111 231.007 132.276 231.007H128.117V231.007Z" fill="#2F6632"/>
<path d="M172.644 245.375H167.901L162.736 236.734C161.704 235.006 160.761 233.829 159.904 233.208C159.046 232.584 158.021 232.273 156.83 232.273H153.934V245.375H149.917V214.25H159.399C162.427 214.25 164.8 214.979 166.515 216.44C168.228 217.899 169.086 219.945 169.086 222.569C169.086 226.882 166.78 229.682 162.173 230.968V231.068C163.029 231.431 163.771 231.947 164.395 232.616C165.017 233.285 165.825 234.431 166.814 236.051L172.644 245.375ZM153.934 217.764V228.756H158.676C160.512 228.756 162.002 228.221 163.15 227.149C164.293 226.076 164.867 224.67 164.867 222.93C164.867 221.308 164.343 220.042 163.3 219.132C162.254 218.22 160.735 217.763 158.739 217.763H153.934V217.764Z" fill="#2F6632"/>
<path d="M201.236 245.375H196.797L193.62 236.854H180.659L177.669 245.375H173.226L185.08 214.25H189.381L201.236 245.375ZM192.374 233.337L187.673 220.399C187.527 219.983 187.364 219.26 187.192 218.229H187.088C186.942 219.166 186.777 219.891 186.589 220.399L181.927 233.337H192.374Z" fill="#2F6632"/>
<path d="M204.288 239.526C205.24 240.357 206.512 241.04 208.108 241.576C209.7 242.113 211.215 242.379 212.649 242.379C217.015 242.379 219.199 240.825 219.199 237.719C219.199 236.845 218.965 236.063 218.496 235.367C218.026 234.67 217.384 234.053 216.568 233.518C215.75 232.983 214.215 232.158 211.965 231.047C208.844 229.492 206.788 228.049 205.797 226.715C204.805 225.383 204.308 223.859 204.308 222.144C204.308 219.558 205.348 217.51 207.423 215.996C209.498 214.482 212.12 213.725 215.279 213.725C218.375 213.725 220.644 214.101 222.09 214.851V219.231C220.215 217.931 217.843 217.28 214.979 217.28C213.074 217.28 211.523 217.681 210.326 218.476C209.126 219.274 208.528 220.382 208.528 221.802C208.528 223.061 208.944 224.086 209.776 224.876C210.605 225.666 212.405 226.744 215.179 228.111C218.232 229.571 220.371 231.03 221.587 232.492C222.808 233.95 223.416 235.593 223.416 237.413C223.416 240.146 222.424 242.242 220.441 243.702C218.458 245.163 215.707 245.894 212.184 245.894C210.952 245.894 209.514 245.723 207.874 245.382C206.232 245.039 205.037 244.614 204.286 244.105V239.526H204.288Z" fill="#2F6632"/>
<path d="M233.506 214.25V245.375H229.486V214.25H233.506Z" fill="#2F6632"/>
<path d="M258 245.375H241.583V214.25H245.603V241.819H258V245.375Z" fill="#2F6632"/>
<path d="M1 266.858C1 263.387 1.94131 260.622 3.81994 258.566C5.69857 256.513 8.2435 255.486 11.4587 255.486C14.4461 255.486 16.855 256.489 18.6775 258.496C20.5029 260.507 21.4126 263.123 21.4126 266.345C21.4126 269.834 20.4773 272.605 18.6095 274.649C16.7368 276.695 14.2391 277.718 11.1078 277.718C8.05424 277.718 5.60593 276.713 3.76574 274.705C1.92259 272.695 1 270.079 1 266.858ZM3.9165 266.635C3.9165 269.236 4.58279 271.322 5.90847 272.891C7.23909 274.462 8.97088 275.245 11.1078 275.245C13.4063 275.245 15.208 274.494 16.5169 272.99C17.8278 271.485 18.4823 269.381 18.4823 266.678C18.4823 263.9 17.8417 261.755 16.5593 260.247C15.277 258.738 13.5196 257.986 11.2901 257.986C9.09507 257.986 7.317 258.783 5.9578 260.374C4.5986 261.965 3.9165 264.051 3.9165 266.635Z" fill="#7C9D3D"/>
<path d="M45.2199 277.355H41.9278L31.1085 260.621C30.8039 260.15 30.5575 259.681 30.3732 259.217H30.2904C30.3653 259.699 30.4038 260.706 30.4038 262.233V277.355H27.6528V255.844H31.137L41.6637 272.289C42.1624 273.065 42.4611 273.561 42.5508 273.774H42.607C42.5143 273.163 42.4719 272.116 42.4719 270.634V255.844H45.2189V277.355H45.2199Z" fill="#7C9D3D"/>
<path d="M64.2042 277.355H52.8595V255.844H55.6351V274.899H64.2033V277.355H64.2042Z" fill="#7C9D3D"/>
<path d="M72.3171 255.844V277.355H69.5396V255.844H72.3171Z" fill="#7C9D3D"/>
<path d="M97.5505 277.355H94.2604L83.4391 260.621C83.1345 260.15 82.8881 259.681 82.7057 259.217H82.619C82.6939 259.699 82.7324 260.706 82.7324 262.233V277.355H79.9814V255.844H83.4676L93.9943 272.289C94.495 273.065 94.7917 273.561 94.8853 273.774H94.9415C94.8469 273.163 94.8005 272.116 94.8005 270.634V255.844H97.5495V277.355H97.5505Z" fill="#7C9D3D"/>
<path d="M116.76 277.355H105.192V255.844H116.275V258.317H107.97V265.205H115.663V267.662H107.97V274.899H116.76V277.355Z" fill="#7C9D3D"/>
</svg>
