<svg width="135" height="167" viewBox="0 0 135 167" fill="none" xmlns="http://www.w3.org/2000/svg">
<path d="M11.7981 110.722L20.2468 129H15.8329L14.4519 125.615H7.2759L5.89486 129H1.48095L9.92966 110.722H11.7981ZM10.8774 116.869L8.60278 122.42H13.1521L10.8774 116.869ZM39.0939 110.857V129.135H37.74L26.9895 118.06V129H23.2255V110.722H24.5795L35.3299 121.959V110.857H39.0939ZM59.9178 110.803V121.824C59.9178 123.395 59.5658 124.749 58.8617 125.886C58.1757 127.005 57.237 127.872 56.0455 128.485C54.8721 129.081 53.5542 129.379 52.0919 129.379C50.6297 129.379 49.3028 129.081 48.1113 128.485C46.9198 127.872 45.9721 127.005 45.268 125.886C44.582 124.749 44.239 123.395 44.239 121.824V110.803H48.003V121.607C48.003 122.997 48.3731 124.045 49.1132 124.749C49.8715 125.435 50.8644 125.769 52.0919 125.75C53.3015 125.75 54.2854 125.407 55.0436 124.721C55.8018 124.035 56.1809 122.997 56.1809 121.607V110.803H59.9178ZM80.9313 110.857V129.135H79.5773L68.8269 118.06V129H65.0629V110.722H66.4168L77.1673 121.959V110.857H80.9313ZM94.4438 110.451C95.5811 110.451 96.565 110.613 97.3954 110.938C98.2258 111.245 98.948 111.669 99.5618 112.211V116.002C99.1285 115.677 98.6772 115.361 98.2078 115.054C97.7384 114.747 97.2059 114.495 96.6101 114.296C96.0324 114.097 95.3464 113.998 94.5521 113.998C93.4689 113.998 92.4851 114.26 91.6005 114.783C90.7159 115.307 90.0118 116.011 89.4883 116.896C88.9648 117.78 88.703 118.791 88.703 119.928C88.703 121.048 88.9648 122.059 89.4883 122.961C90.0118 123.846 90.7159 124.55 91.6005 125.074C92.4851 125.579 93.4689 125.832 94.5521 125.832C95.7616 125.832 96.7726 125.651 97.585 125.29C98.4154 124.911 99.1646 124.451 99.8325 123.909V127.565C99.2187 128.124 98.4515 128.576 97.5308 128.919C96.6101 129.244 95.5811 129.406 94.4438 129.406C93.144 129.406 91.9164 129.181 90.761 128.729C89.6056 128.26 88.5857 127.61 87.7011 126.78C86.8165 125.931 86.1214 124.929 85.616 123.774C85.1105 122.618 84.8578 121.337 84.8578 119.928C84.8578 118.52 85.1105 117.239 85.616 116.083C86.1214 114.928 86.8165 113.935 87.7011 113.105C88.5857 112.256 89.6056 111.606 90.761 111.155C91.9164 110.685 93.144 110.451 94.4438 110.451ZM113.508 125.615V129H103.624V125.615H106.684V114.242H103.624V110.857H113.508V114.242H110.448V125.615H113.508ZM130.567 118.222V121.282H122.552V125.669H131.624V129H118.788V110.857H131.624V114.106H122.552V118.222H130.567ZM39.5001 143.722L47.9488 162H43.5349L42.1539 158.615H34.9779L33.5969 162H29.183L37.6317 143.722H39.5001ZM38.5794 149.869L36.3048 155.42H40.8541L38.5794 149.869ZM58.943 143.451C60.2428 143.451 61.4613 143.685 62.5987 144.155C63.736 144.606 64.7379 145.256 65.6045 146.105C66.489 146.935 67.175 147.928 67.6625 149.083C68.168 150.239 68.4207 151.52 68.4207 152.928C68.4207 154.355 68.1589 155.654 67.6354 156.828C67.1299 158.001 66.4259 159.012 65.5232 159.861C64.6386 160.709 63.6096 161.35 62.4362 161.783C63.4652 162.199 64.5484 162.515 65.6857 162.731C66.823 162.948 67.8611 163.056 68.7998 163.056V166.387C67.7527 166.387 66.6335 166.224 65.442 165.899C64.2505 165.593 63.0861 165.141 61.9488 164.545C60.8114 163.95 59.8095 163.237 58.943 162.406C57.6432 162.406 56.4156 162.181 55.2602 161.729C54.1229 161.26 53.1119 160.61 52.2273 159.78C51.3608 158.931 50.6748 157.929 50.1693 156.774C49.6819 155.618 49.4382 154.337 49.4382 152.928C49.4382 151.52 49.6819 150.239 50.1693 149.083C50.6748 147.928 51.3608 146.935 52.2273 146.105C53.1119 145.256 54.1229 144.606 55.2602 144.155C56.4156 143.685 57.6432 143.451 58.943 143.451ZM58.943 146.998C57.8598 146.998 56.885 147.26 56.0184 147.783C55.1699 148.307 54.502 149.011 54.0146 149.896C53.5271 150.78 53.2834 151.791 53.2834 152.928C53.2834 154.048 53.5271 155.059 54.0146 155.961C54.502 156.846 55.1699 157.55 56.0184 158.074C56.885 158.579 57.8598 158.832 58.943 158.832C60.0261 158.832 60.992 158.579 61.8404 158.074C62.6889 157.55 63.3569 156.846 63.8443 155.961C64.3317 155.059 64.5754 154.048 64.5754 152.928C64.5754 151.791 64.3317 150.78 63.8443 149.896C63.3569 149.011 62.6889 148.307 61.8404 147.783C60.992 147.26 60.0261 146.998 58.943 146.998ZM88.6218 143.803V154.824C88.6218 156.395 88.2697 157.749 87.5657 158.886C86.8797 160.005 85.9409 160.872 84.7494 161.485C83.576 162.081 82.2582 162.379 80.7959 162.379C79.3336 162.379 78.0067 162.081 76.8152 161.485C75.6238 160.872 74.676 160.005 73.9719 158.886C73.2859 157.749 72.9429 156.395 72.9429 154.824V143.803H76.7069V154.607C76.7069 155.997 77.077 157.045 77.8172 157.749C78.5754 158.435 79.5683 158.769 80.7959 158.75C82.0054 158.75 82.9893 158.407 83.7475 157.721C84.5057 157.035 84.8848 155.997 84.8848 154.607V143.803H88.6218ZM103.515 158.615V162H93.6314V158.615H96.6914V147.242H93.6314V143.857H103.515V147.242H100.455V158.615H103.515Z" fill="white"/>
<path d="M37.8291 21.8863L68.5008 3.89258L99.1735 21.8863V57.8764L68.5008 75.8685L37.8291 57.8764V21.8863Z" stroke="#AA6235" stroke-width="4" stroke-miterlimit="10"/>
<path d="M37.8298 25.572C39.9449 25.572 41.6595 23.8297 41.6595 21.6803C41.6595 19.531 39.9449 17.7886 37.8298 17.7886C35.7146 17.7886 34 19.531 34 21.6803C34 23.8297 35.7146 25.572 37.8298 25.572Z" fill="#B5D874"/>
<path d="M72.328 3.89277C72.328 6.04048 70.6159 7.78398 68.4993 7.78398C66.3837 7.78398 64.667 6.04048 64.667 3.89277C64.667 1.74145 66.3843 0 68.4993 0C70.6159 0 72.328 1.74145 72.328 3.89277Z" fill="#B5D874"/>
<path d="M102.998 21.6805C102.998 23.8303 101.283 25.5733 99.1702 25.5733C97.0541 25.5733 95.3379 23.8308 95.3379 21.6805C95.3379 19.5312 97.0546 17.7852 99.1702 17.7852C101.283 17.7852 102.998 19.5312 102.998 21.6805Z" fill="#B5D874"/>
<path d="M41.6596 57.988C41.6596 55.8362 39.9448 54.0942 37.8288 54.0942C35.7127 54.0942 34 55.8362 34 57.988C34 60.1368 35.7127 61.8808 37.8288 61.8808C39.9448 61.8808 41.6596 60.1368 41.6596 57.988Z" fill="#B5D874"/>
<path d="M72.328 75.775C72.328 73.6272 70.6159 71.8848 68.4993 71.8848C66.3837 71.8848 64.667 73.6272 64.667 75.775C64.667 77.9263 66.3843 79.6698 68.4993 79.6698C70.6159 79.6698 72.328 77.9263 72.328 75.775Z" fill="#B5D874"/>
<path d="M102.998 57.988C102.998 55.8362 101.283 54.0942 99.1702 54.0942C97.0541 54.0942 95.3379 55.8362 95.3379 57.988C95.3379 60.1368 97.0546 61.8808 99.1702 61.8808C101.283 61.8808 102.998 60.1368 102.998 57.988Z" fill="#B5D874"/>
<path d="M62.6678 43.1163C65.6367 45.0323 70.2605 49.6501 69.3646 51.0743C68.4733 52.5012 62.4013 50.1995 59.4344 48.2809C56.4681 46.3618 51.0756 41.2508 51.9674 39.8224C52.8633 38.3961 59.704 41.1967 62.6678 43.1163Z" fill="#B5D874" stroke="#B5D874" stroke-width="0.924303" stroke-miterlimit="10"/>
<path d="M79.3579 42.7014C76.4741 46.6452 69.786 52.6264 67.9501 51.2372C66.1148 49.8505 69.829 41.6191 72.7158 37.6789C75.6 33.7367 83.0331 26.738 84.8689 28.1236C86.7043 29.5119 82.2446 38.7639 79.3579 42.7014Z" fill="white" stroke="white" stroke-width="0.924303" stroke-miterlimit="10"/>
</svg>
