<svg width="258" height="65" viewBox="0 0 258 65" fill="none" xmlns="http://www.w3.org/2000/svg">
<path d="M29.9729 32.3839H25.5986L22.4722 23.9912H9.7071L6.75805 32.3839H2.38379L14.0617 1.72754H18.297L29.9729 32.3839ZM21.244 20.5267L16.6125 7.78234C16.4686 7.37231 16.3099 6.65969 16.1394 5.64448H16.0408C15.895 6.56901 15.7294 7.27966 15.5441 7.78234L10.953 20.5267H21.244Z" fill="white" stroke="white" stroke-width="2.42" stroke-miterlimit="10"/>
<path d="M57.007 30.2845C53.9466 32.0271 50.489 32.8974 46.6351 32.8974C42.2037 32.8974 38.6327 31.4959 35.9203 28.6917C33.2097 25.8876 31.8545 22.1431 31.8545 17.4594C31.8545 12.7233 33.3507 8.83006 36.3461 5.78344C39.3414 2.73387 43.1805 1.21204 47.8642 1.21204C51.175 1.21204 53.9802 1.73838 56.2747 2.794V7.06774C53.8225 5.52423 50.9 4.75247 47.5074 4.75247C44.1691 4.75247 41.4201 5.89188 39.2567 8.17758C37.0932 10.4593 36.0089 13.4665 36.0089 17.2001C36.0089 21.0402 37.0064 24.0287 38.9984 26.1655C40.9904 28.3034 43.6822 29.3718 47.0738 29.3718C49.4068 29.3718 51.3938 28.9234 53.028 28.0264V19.7342H46.3789V16.2322H57.007V30.2845Z" fill="white" stroke="white" stroke-width="2.42" stroke-miterlimit="10"/>
<path d="M86.3546 32.3839H81.6846L76.5987 23.8719C75.5845 22.1707 74.652 21.0116 73.8093 20.4005C72.9646 19.7865 71.9554 19.4789 70.7815 19.4789H67.93V32.3839H63.9717V1.72754H73.3145C76.2961 1.72754 78.6321 2.44605 80.3195 3.88312C82.0079 5.32314 82.8526 7.33582 82.8526 9.92017C82.8526 14.1693 80.5827 16.9251 76.0458 18.1937V18.2932C76.8905 18.648 77.6188 19.1576 78.2309 19.816C78.845 20.4764 79.6404 21.603 80.6162 23.2017L86.3546 32.3839ZM67.93 5.1901V16.0164H72.6019C74.4076 16.0164 75.8762 15.4871 77.0048 14.4324C78.1333 13.3778 78.6971 11.992 78.6971 10.277C78.6971 8.68026 78.1816 7.4334 77.1536 6.53449C76.1256 5.63756 74.6264 5.1901 72.66 5.1901H67.93Z" fill="white" stroke="white" stroke-width="2.42" stroke-miterlimit="10"/>
<path d="M88.0173 17.4209C88.0173 12.472 89.3568 8.53632 92.0368 5.60699C94.7148 2.67668 98.3409 1.21399 102.919 1.21399C107.183 1.21399 110.612 2.64414 113.21 5.50743C115.809 8.36874 117.108 12.0974 117.108 16.6885C117.108 21.6631 115.776 25.6066 113.11 28.5241C110.446 31.4386 106.882 32.8984 102.423 32.8984C98.0689 32.8984 94.5807 31.4663 91.9569 28.604C89.3302 25.7387 88.0173 22.011 88.0173 17.4209ZM92.1718 17.1035C92.1718 20.8115 93.1209 23.7822 95.0134 26.0206C96.9078 28.256 99.3778 29.3738 102.425 29.3738C105.698 29.3738 108.266 28.3014 110.131 26.1576C111.999 24.0148 112.934 21.0145 112.934 17.1626C112.934 13.2053 112.02 10.1518 110.195 7.99914C108.365 5.85045 105.863 4.77412 102.684 4.77412C99.5572 4.77412 97.0221 5.90957 95.0853 8.1795C93.1446 10.4484 92.1718 13.4221 92.1718 17.1035Z" fill="white" stroke="white" stroke-width="2.42" stroke-miterlimit="10"/>
<path d="M124.098 32.3751V1.25049H133.24C135.971 1.25049 138.154 1.902 139.79 3.20995C141.422 4.51494 142.238 6.24573 142.238 8.40231C142.238 10.1173 141.755 11.6322 140.783 12.9422C139.813 14.257 138.476 15.1874 136.773 15.7364V15.8183C138.89 16.0588 140.581 16.8601 141.849 18.2183C143.112 19.5785 143.749 21.3034 143.749 23.3919C143.749 26.0719 142.786 28.2383 140.863 29.8932C138.942 31.5471 136.48 32.3761 133.479 32.3761H124.098V32.3751ZM128.117 4.7643V14.5103H131.773C133.717 14.5103 135.238 14.0382 136.345 13.0949C137.448 12.1487 138.003 10.8408 138.003 9.16717C138.003 6.23292 136.048 4.7643 132.136 4.7643H128.117ZM128.117 18.0074V28.8583H132.938C135.042 28.8583 136.667 28.3724 137.81 27.4025C138.957 26.4297 139.529 25.0813 139.529 23.3525C139.529 19.7904 137.111 18.0074 132.276 18.0074H128.117Z" fill="#2F6632"/>
<path d="M172.644 32.3751H167.901L162.736 23.7339C161.704 22.0061 160.761 20.8293 159.904 20.2083C159.046 19.5844 158.021 19.2729 156.83 19.2729H153.934V32.3751H149.917V1.25049H159.399C162.427 1.25049 164.8 1.97889 166.515 3.4396C168.228 4.89934 169.086 6.94454 169.086 9.5693C169.086 13.8825 166.78 16.6817 162.173 17.9679V18.0685C163.029 18.4312 163.771 18.9467 164.395 19.6159C165.017 20.2852 165.825 21.4305 166.814 23.0509L172.644 32.3751ZM153.934 4.7643V15.7562H158.676C160.512 15.7562 162.002 15.221 163.15 14.1486C164.293 13.0762 164.867 11.6697 164.867 9.93004C164.867 8.30768 164.343 7.04212 163.3 6.13237C162.254 5.21967 160.735 4.76331 158.739 4.76331H153.934V4.7643Z" fill="#2F6632"/>
<path d="M201.236 32.3751H196.797L193.62 23.8542H180.659L177.669 32.3751H173.226L185.08 1.25049H189.381L201.236 32.3751ZM192.374 20.3374L187.673 7.39892C187.527 6.98298 187.364 6.25953 187.192 5.22855H187.088C186.942 6.16589 186.777 6.89132 186.589 7.39892L181.927 20.3374H192.374Z" fill="#2F6632"/>
<path d="M204.288 26.5262C205.24 27.3571 206.512 28.0402 208.108 28.5763C209.7 29.1125 211.215 29.3786 212.649 29.3786C217.015 29.3786 219.199 27.8253 219.199 24.7185C219.199 23.8453 218.965 23.0627 218.496 22.3668C218.026 21.67 217.384 21.0529 216.568 20.5177C215.75 19.9825 214.215 19.1576 211.965 18.0468C208.844 16.4924 206.788 15.0494 205.797 13.7148C204.805 12.3832 204.308 10.8595 204.308 9.14443C204.308 6.55811 205.348 4.50994 207.423 2.996C209.498 1.48206 212.12 0.725098 215.279 0.725098C218.375 0.725098 220.644 1.10063 222.09 1.8507V6.23089C220.215 4.93083 217.843 4.2803 214.979 4.2803C213.074 4.2803 211.523 4.68147 210.326 5.47589C209.126 6.27426 208.528 7.38212 208.528 8.80243C208.528 10.0611 208.944 11.0861 209.776 11.8756C210.605 12.6661 212.405 13.7444 215.179 15.1105C218.232 16.5712 220.371 18.03 221.587 19.4917C222.808 20.9505 223.416 22.5925 223.416 24.413C223.416 27.1462 222.424 29.2417 220.441 30.7024C218.458 32.1631 215.707 32.8944 212.184 32.8944C210.952 32.8944 209.514 32.7229 207.874 32.3819C206.232 32.0389 205.037 31.6141 204.286 31.1045V26.5262H204.288Z" fill="#2F6632"/>
<path d="M233.506 1.25049V32.3751H229.486V1.25049H233.506Z" fill="#2F6632"/>
<path d="M258 32.3751H241.583V1.25049H245.603V28.8189H258V32.3751Z" fill="#2F6632"/>
<path d="M1 53.858C1 50.3866 1.94131 47.6219 3.81994 45.5658C5.69857 43.5128 8.2435 42.4857 11.4587 42.4857C14.4461 42.4857 16.855 43.4891 18.6775 45.4959C20.5029 47.5066 21.4126 50.1234 21.4126 53.3445C21.4126 56.8337 20.4773 59.6053 18.6095 61.6486C16.7368 63.6948 14.2391 64.7178 11.1078 64.7178C8.05424 64.7178 5.60593 63.7135 3.76574 61.7047C1.92259 59.695 1 57.0791 1 53.858ZM3.9165 53.6353C3.9165 56.2364 4.58279 58.322 5.90847 59.8911C7.23909 61.4623 8.97088 62.2449 11.1078 62.2449C13.4063 62.2449 15.208 61.4938 16.5169 59.9897C17.8278 58.4846 18.4823 56.3813 18.4823 53.6777C18.4823 50.9001 17.8417 48.7554 16.5593 47.2473C15.277 45.7383 13.5196 44.9863 11.2901 44.9863C9.09507 44.9863 7.317 45.7827 5.9578 47.3745C4.5986 48.9653 3.9165 51.0509 3.9165 53.6353Z" fill="#7C9D3D"/>
<path d="M45.2199 64.3551H41.9278L31.1085 47.6209C30.8039 47.1497 30.5575 46.6806 30.3732 46.2173H30.2904C30.3653 46.6993 30.4038 47.7057 30.4038 49.2334V64.3551H27.6528V42.8445H31.137L41.6637 59.2889C42.1624 60.0646 42.4611 60.5614 42.5508 60.7743H42.607C42.5143 60.1632 42.4719 59.1164 42.4719 57.634V42.8445H45.2189V64.3551H45.2199Z" fill="#7C9D3D"/>
<path d="M64.2042 64.3551H52.8595V42.8445H55.6351V61.8989H64.2033V64.3551H64.2042Z" fill="#7C9D3D"/>
<path d="M72.3171 42.8445V64.3551H69.5396V42.8445H72.3171Z" fill="#7C9D3D"/>
<path d="M97.5505 64.3551H94.2604L83.4391 47.6209C83.1345 47.1497 82.8881 46.6806 82.7057 46.2173H82.619C82.6939 46.6993 82.7324 47.7057 82.7324 49.2334V64.3551H79.9814V42.8445H83.4676L93.9943 59.2889C94.495 60.0646 94.7917 60.5614 94.8853 60.7743H94.9415C94.8469 60.1632 94.8005 59.1164 94.8005 57.634V42.8445H97.5495V64.3551H97.5505Z" fill="#7C9D3D"/>
<path d="M116.76 64.3551H105.192V42.8445H116.275V45.3175H107.97V52.2051H115.663V54.6623H107.97V61.8989H116.76V64.3551Z" fill="#7C9D3D"/>
</svg>
