<svg width="70" height="69" viewBox="0 0 70 69" fill="none" xmlns="http://www.w3.org/2000/svg">
<path d="M61.0208 36.3969L70 31.6517C69.8126 29.9154 69.4962 28.1954 69.0532 26.506L59.0794 25.123C58.2208 23.0485 57.0761 21.117 55.7405 19.3478L59.5397 10.0006C58.2852 8.78324 56.9411 7.66176 55.5187 6.64558L47.0522 11.963C45.0632 10.9138 42.9263 10.1269 40.6773 9.61427L37.6151 0.133531C36.7493 0.0691502 35.8812 0 34.9964 0C34.1116 0 33.2459 0.0667657 32.373 0.133531L29.3441 9.52842C27.0379 10.0244 24.8509 10.8256 22.8142 11.8819L14.4765 6.64558C13.0575 7.67091 11.71 8.77969 10.4579 9.99817L14.1545 19.0878C12.714 20.9358 11.5073 22.9746 10.601 25.1683L0.942046 26.5036C0.499719 28.1921 0.184818 29.9114 0 31.647L8.66921 36.2323C8.76461 38.6478 9.17004 40.987 9.87598 43.1903L3.33413 50.4201C4.0973 51.9938 4.94157 53.527 5.92177 54.9625L15.5497 52.8952C17.1238 54.612 18.9244 56.1142 20.9087 57.3613L20.5438 67.2093C22.125 67.9246 23.7682 68.5207 25.4615 68.9976L31.5526 61.1693C32.633 61.3076 33.7276 61.4006 34.8438 61.4006C36.0529 61.4006 37.2359 61.2909 38.3973 61.1312L44.5218 69C46.2151 68.5231 47.8607 67.927 49.4395 67.2164L49.0675 57.1872C50.9517 55.9649 52.6717 54.5065 54.1855 52.8475L64.0639 54.9649C65.038 53.517 65.9029 51.9987 66.6516 50.4224L59.9022 42.959C60.5461 40.8702 60.911 38.6669 61.016 36.3945L61.0208 36.3969ZM46.0983 47.8019L41.8412 50.5727L39.2225 46.5476C37.8291 47.0961 36.346 47.3815 34.8486 47.3894C32.0204 47.3906 29.2792 46.4114 27.0921 44.6186C24.905 42.8258 23.4073 40.3302 22.8542 37.5572C22.301 34.7841 22.7266 31.9051 24.0584 29.4105C25.3903 26.916 27.5459 24.9603 30.1582 23.8767C32.7705 22.7931 35.6778 22.6485 38.3847 23.4677C41.0916 24.2868 43.4308 26.019 45.0036 28.3691C46.5764 30.7192 47.2855 33.5419 47.0103 36.3561C46.735 39.1704 45.4923 41.8022 43.4939 43.8031L46.0983 47.8019Z" fill="#162D18"/>
</svg>
