<svg width="68" height="67" viewBox="0 0 68 67" fill="none" xmlns="http://www.w3.org/2000/svg">
<path d="M27.3405 46.9988L36.4681 50.0414C36.4681 50.0414 59.2873 45.4775 62.3299 45.4775C65.3725 45.4775 65.3725 48.5201 62.3299 51.5627C59.2873 54.6052 48.6384 63.7329 39.5107 63.7329C30.383 63.7329 24.2979 59.1691 18.2128 59.1691H3" stroke="#162D18" stroke-width="5" stroke-linecap="round" stroke-linejoin="round"/>
<path d="M3 40.9138C6.04256 37.8712 12.1277 33.3074 18.2128 33.3074C24.2979 33.3074 38.7501 39.3925 41.032 42.435C43.3139 45.4776 36.4681 50.0414 36.4681 50.0414" stroke="#162D18" stroke-width="5" stroke-linecap="round" stroke-linejoin="round"/>
<path d="M48.6381 34.8287C51.1586 34.8287 53.2019 32.7854 53.2019 30.2649C53.2019 27.7443 51.1586 25.701 48.6381 25.701C46.1175 25.701 44.0742 27.7443 44.0742 30.2649C44.0742 32.7854 46.1175 34.8287 48.6381 34.8287Z" fill="#162D18" stroke="#162D18" stroke-width="4"/>
<path d="M30.3832 24.1796C32.9037 24.1796 34.947 22.1363 34.947 19.6157C34.947 17.0952 32.9037 15.0519 30.3832 15.0519C27.8626 15.0519 25.8193 17.0952 25.8193 19.6157C25.8193 22.1363 27.8626 24.1796 30.3832 24.1796Z" fill="#162D18" stroke="#162D18" stroke-width="4"/>
<path d="M48.6381 12.0095C51.1586 12.0095 53.2019 9.96621 53.2019 7.44567C53.2019 4.92514 51.1586 2.88184 48.6381 2.88184C46.1175 2.88184 44.0742 4.92514 44.0742 7.44567C44.0742 9.96621 46.1175 12.0095 48.6381 12.0095Z" fill="#162D18" stroke="#162D18" stroke-width="4"/>
</svg>
