<svg width="71" height="67" viewBox="0 0 71 67" fill="none" xmlns="http://www.w3.org/2000/svg">
<path d="M69.5277 32.9621L39.2671 2.74279L37.2387 0.716166C36.7766 0.25745 36.1516 0 35.5001 0C34.8487 0 34.2237 0.25745 33.7616 0.716166L1.47263 32.9621C0.999074 33.4335 0.624814 33.9948 0.371942 34.613C0.11907 35.2312 -0.00728814 35.8937 0.00032461 36.5615C0.0316503 39.3159 2.32626 41.5146 5.08292 41.5146H8.41127V67H62.589V41.5146H65.9879C67.327 41.5146 68.5879 40.9904 69.5355 40.0436C70.0021 39.5789 70.3718 39.0263 70.6232 38.4179C70.8745 37.8094 71.0026 37.1572 71 36.499C71 35.1687 70.4753 33.9089 69.5277 32.9621ZM39.8857 61.3661H31.1145V45.4036H39.8857V61.3661ZM56.9504 35.8808V61.3661H44.8978V43.5256C44.8978 41.7963 43.496 40.3957 41.7653 40.3957H29.235C27.5043 40.3957 26.1024 41.7963 26.1024 43.5256V61.3661H14.0499V35.8808H6.53173L35.508 6.95253L37.317 8.76005L64.4764 35.8808H56.9504Z" fill="#162D18"/>
</svg>
