<svg width="121" height="137" viewBox="0 0 121 137" fill="none" xmlns="http://www.w3.org/2000/svg">
<path d="M6.67407 37.5388L60.1319 6.67676L113.591 37.5388V99.2674L60.1319 130.127L6.67407 99.2674V37.5388Z" stroke="#AA6235" stroke-width="4" stroke-miterlimit="10"/>
<path d="M6.6759 43.8605C10.3624 43.8605 13.3508 40.872 13.3508 37.1856C13.3508 33.4991 10.3624 30.5106 6.6759 30.5106C2.98943 30.5106 0.000976562 33.4991 0.000976562 37.1856C0.000976562 40.872 2.98943 43.8605 6.6759 43.8605Z" fill="#7C9D3D"/>
<path d="M66.805 6.67671C66.805 10.3604 63.8208 13.3508 60.1319 13.3508C56.4447 13.3508 53.4525 10.3604 53.4525 6.67671C53.4525 2.98686 56.4455 0 60.1319 0C63.8208 0 66.805 2.98686 66.805 6.67671Z" fill="#7C9D3D"/>
<path d="M120.264 37.1855C120.264 40.8727 117.274 43.8622 113.591 43.8622C109.903 43.8622 106.912 40.8736 106.912 37.1855C106.912 33.4992 109.904 30.5044 113.591 30.5044C117.274 30.5044 120.264 33.4992 120.264 37.1855Z" fill="#7C9D3D"/>
<path d="M13.3499 99.459C13.3499 95.7682 10.3613 92.7805 6.67319 92.7805C2.98511 92.7805 0 95.7682 0 99.459C0 103.144 2.98511 106.136 6.67319 106.136C10.3613 106.136 13.3499 103.144 13.3499 99.459Z" fill="#7C9D3D"/>
<path d="M66.805 129.966C66.805 126.282 63.8208 123.294 60.1319 123.294C56.4447 123.294 53.4525 126.282 53.4525 129.966C53.4525 133.656 56.4455 136.646 60.1319 136.646C63.8208 136.646 66.805 133.656 66.805 129.966Z" fill="#7C9D3D"/>
<path d="M120.264 99.459C120.264 95.7682 117.274 92.7805 113.591 92.7805C109.903 92.7805 106.912 95.7682 106.912 99.459C106.912 103.144 109.904 106.136 113.591 106.136C117.274 106.136 120.264 103.144 120.264 99.459Z" fill="#7C9D3D"/>
<path d="M49.9623 73.9515C55.1367 77.2378 63.1956 85.158 61.6341 87.6008C60.0807 90.048 49.4977 86.1003 44.3268 82.8096C39.1568 79.5181 29.7582 70.7518 31.3125 68.3019C32.874 65.8556 44.7967 70.6591 49.9623 73.9515Z" fill="#7C9C3D" stroke="#7C9C3D" stroke-miterlimit="10"/>
<path d="M79.0571 73.2397C74.031 80.0038 62.3742 90.2626 59.1745 87.8799C55.9757 85.5015 62.4492 71.3833 67.4806 64.6253C72.5076 57.8639 85.4627 45.8599 88.6624 48.2365C91.8612 50.6175 84.0885 66.4862 79.0571 73.2397Z" fill="white" stroke="white" stroke-miterlimit="10"/>
</svg>
