<svg width="333" height="68" viewBox="0 0 333 68" fill="none" xmlns="http://www.w3.org/2000/svg">
<path d="M3.28003 18.449L29.553 3.28101L55.826 18.449V48.787L29.553 63.953L3.28003 48.787V18.449Z" stroke="#AA6235" stroke-width="2" stroke-miterlimit="10"/>
<path d="M3.28 21.555C5.09149 21.555 6.56 20.0865 6.56 18.275C6.56 16.4635 5.09149 14.995 3.28 14.995C1.4685 14.995 0 16.4635 0 18.275C0 20.0865 1.4685 21.555 3.28 21.555Z" fill="#7C9D3D"/>
<path d="M29.551 6.56201C31.3631 6.56201 32.832 5.09305 32.832 3.28101C32.832 1.46896 31.3631 0 29.551 0C27.739 0 26.27 1.46896 26.27 3.28101C26.27 5.09305 27.739 6.56201 29.551 6.56201Z" fill="#7C9D3D"/>
<path d="M55.824 21.556C57.636 21.556 59.105 20.0871 59.105 18.275C59.105 16.463 57.636 14.994 55.824 14.994C54.0119 14.994 52.543 16.463 52.543 18.275C52.543 20.0871 54.0119 21.556 55.824 21.556Z" fill="#7C9D3D"/>
<path d="M3.28 52.1611C5.09149 52.1611 6.56 50.6926 6.56 48.8811C6.56 47.0696 5.09149 45.6011 3.28 45.6011C1.4685 45.6011 0 47.0696 0 48.8811C0 50.6926 1.4685 52.1611 3.28 52.1611Z" fill="#7C9D3D"/>
<path d="M32.832 63.874C32.832 62.063 31.365 60.595 29.553 60.595C27.741 60.595 26.27 62.064 26.27 63.874C26.27 65.687 27.741 67.157 29.553 67.157C31.365 67.157 32.832 65.688 32.832 63.874Z" fill="#7C9D3D"/>
<path d="M55.824 52.162C57.636 52.162 59.105 50.693 59.105 48.881C59.105 47.0689 57.636 45.6 55.824 45.6C54.0119 45.6 52.543 47.0689 52.543 48.881C52.543 50.693 54.0119 52.162 55.824 52.162Z" fill="#7C9D3D"/>
<path d="M24.555 36.345C27.098 37.96 31.059 41.853 30.291 43.053C29.527 44.256 24.326 42.316 21.785 40.699C19.244 39.082 14.625 34.773 15.389 33.569C16.156 32.366 22.016 34.727 24.555 36.345Z" fill="#7C9C3D" stroke="#7C9C3D" stroke-miterlimit="10"/>
<path d="M38.854 35.995C36.383 39.319 30.655 44.361 29.083 43.19C27.511 42.021 30.692 35.083 33.165 31.761C35.636 28.438 42.0029 22.538 43.5749 23.706C45.1469 24.877 41.326 32.676 38.854 35.995Z" fill="white" stroke="white" stroke-miterlimit="10"/>
<path d="M101.141 33.587H96.7031L93.5311 25.072H80.58L77.588 33.587H73.15L84.998 2.48401H89.295L101.141 33.587ZM92.285 21.558L87.5861 8.62799C87.4401 8.21199 87.279 7.48898 87.106 6.45898H87.006C86.858 7.39698 86.69 8.11799 86.502 8.62799L81.8441 21.558H92.285Z" fill="white" stroke="white" stroke-width="2.42" stroke-miterlimit="10"/>
<path d="M128.569 31.4571C125.464 33.2251 121.956 34.1081 118.046 34.1081C113.55 34.1081 109.927 32.6861 107.175 29.8411C104.425 26.9961 103.05 23.1971 103.05 18.4451C103.05 13.6401 104.568 9.69006 107.607 6.59906C110.646 3.50506 114.541 1.96106 119.293 1.96106C122.652 1.96106 125.498 2.49507 127.826 3.56607V7.90207C125.338 6.33607 122.373 5.55307 118.931 5.55307C115.544 5.55307 112.755 6.70905 110.56 9.02805C108.365 11.343 107.265 14.3941 107.265 18.1821C107.265 22.0781 108.277 25.11 110.298 27.278C112.319 29.447 115.05 30.5311 118.491 30.5311C120.858 30.5311 122.874 30.076 124.532 29.166V20.7531H117.786V17.2001H128.569V31.4571Z" fill="white" stroke="white" stroke-width="2.42" stroke-miterlimit="10"/>
<path d="M158.344 33.587H153.606L148.446 24.951C147.417 23.225 146.471 22.049 145.616 21.429C144.759 20.806 143.735 20.494 142.544 20.494H139.651V33.587H135.635V2.48401H145.114C148.139 2.48401 150.509 3.21299 152.221 4.67099C153.934 6.13199 154.791 8.17399 154.791 10.796C154.791 15.107 152.488 17.903 147.885 19.19V19.291C148.742 19.651 149.481 20.168 150.102 20.836C150.725 21.506 151.532 22.649 152.522 24.271L158.344 33.587ZM139.651 5.99701V16.981H144.391C146.223 16.981 147.713 16.444 148.858 15.374C150.003 14.304 150.575 12.898 150.575 11.158C150.575 9.53799 150.052 8.27299 149.009 7.36099C147.966 6.45099 146.445 5.99701 144.45 5.99701H139.651Z" fill="white" stroke="white" stroke-width="2.42" stroke-miterlimit="10"/>
<path d="M160.031 18.406C160.031 13.385 161.39 9.39201 164.109 6.42001C166.826 3.44701 170.505 1.96301 175.15 1.96301C179.476 1.96301 182.955 3.414 185.591 6.319C188.228 9.222 189.546 13.005 189.546 17.663C189.546 22.71 188.194 26.711 185.489 29.671C182.786 32.628 179.171 34.109 174.647 34.109C170.229 34.109 166.69 32.656 164.028 29.752C161.363 26.846 160.031 23.064 160.031 18.406ZM164.246 18.084C164.246 21.846 165.209 24.86 167.129 27.131C169.051 29.399 171.557 30.533 174.649 30.533C177.969 30.533 180.575 29.445 182.467 27.27C184.362 25.096 185.311 22.052 185.311 18.144C185.311 14.129 184.383 11.031 182.532 8.84698C180.675 6.66698 178.137 5.57501 174.911 5.57501C171.739 5.57501 169.167 6.727 167.202 9.03C165.233 11.332 164.246 14.35 164.246 18.084Z" fill="white" stroke="white" stroke-width="2.42" stroke-miterlimit="10"/>
<path d="M196.637 33.578V2H205.912C208.683 2 210.898 2.66101 212.558 3.98801C214.214 5.31201 215.042 7.06801 215.042 9.25601C215.042 10.996 214.552 12.533 213.565 13.862C212.581 15.196 211.225 16.14 209.497 16.697V16.78C211.645 17.024 213.36 17.837 214.647 19.215C215.928 20.595 216.575 22.345 216.575 24.464C216.575 27.183 215.598 29.381 213.647 31.06C211.698 32.738 209.2 33.579 206.155 33.579H196.637V33.578ZM200.715 5.565V15.453H204.424C206.397 15.453 207.94 14.974 209.063 14.017C210.182 13.057 210.745 11.73 210.745 10.032C210.745 7.05501 208.761 5.565 204.792 5.565H200.715ZM200.715 19.001V30.01H205.606C207.741 30.01 209.389 29.517 210.549 28.533C211.713 27.546 212.293 26.178 212.293 24.424C212.293 20.81 209.84 19.001 204.934 19.001H200.715Z" fill="#2F6632"/>
<path d="M245.891 33.578H241.078L235.838 24.811C234.791 23.058 233.834 21.864 232.965 21.234C232.094 20.601 231.055 20.285 229.846 20.285H226.908V33.578H222.832V2H232.453C235.525 2 237.932 2.73901 239.672 4.22101C241.41 5.70201 242.281 7.777 242.281 10.44C242.281 14.816 239.941 17.656 235.267 18.961V19.063C236.136 19.431 236.888 19.954 237.521 20.633C238.152 21.312 238.972 22.474 239.976 24.118L245.891 33.578ZM226.908 5.565V16.717H231.719C233.582 16.717 235.094 16.174 236.258 15.086C237.418 13.998 238 12.571 238 10.806C238 9.16 237.469 7.876 236.41 6.953C235.349 6.027 233.808 5.564 231.783 5.564H226.908V5.565Z" fill="#2F6632"/>
<path d="M274.899 33.578H270.395L267.172 24.933H254.022L250.989 33.578H246.481L258.508 2H262.871L274.899 33.578ZM265.908 21.365L261.138 8.23801C260.99 7.81601 260.825 7.08201 260.65 6.03601H260.545C260.397 6.98701 260.229 7.72301 260.039 8.23801L255.309 21.365H265.908Z" fill="#2F6632"/>
<path d="M277.996 27.645C278.961 28.488 280.252 29.181 281.871 29.725C283.486 30.269 285.023 30.539 286.478 30.539C290.908 30.539 293.124 28.963 293.124 25.811C293.124 24.925 292.886 24.131 292.411 23.425C291.934 22.718 291.282 22.092 290.454 21.549C289.624 21.006 288.067 20.169 285.784 19.042C282.618 17.465 280.532 16.001 279.526 14.647C278.52 13.296 278.016 11.75 278.016 10.01C278.016 7.38604 279.071 5.30803 281.176 3.77203C283.281 2.23603 285.942 1.46802 289.147 1.46802C292.288 1.46802 294.59 1.84902 296.057 2.61002V7.05402C294.155 5.73502 291.748 5.07504 288.842 5.07504C286.91 5.07504 285.336 5.48203 284.121 6.28802C282.904 7.09802 282.297 8.22202 282.297 9.66302C282.297 10.94 282.719 11.98 283.563 12.781C284.405 13.583 286.231 14.677 289.045 16.063C292.143 17.545 294.313 19.025 295.547 20.508C296.785 21.988 297.402 23.654 297.402 25.501C297.402 28.274 296.396 30.4 294.384 31.882C292.372 33.364 289.581 34.106 286.007 34.106C284.757 34.106 283.298 33.932 281.634 33.586C279.968 33.238 278.755 32.807 277.993 32.29V27.645H277.996Z" fill="#2F6632"/>
<path d="M307.639 2V33.578H303.561V2H307.639Z" fill="#2F6632"/>
<path d="M332.49 33.578H315.834V2H319.912V29.97H332.49V33.578Z" fill="#2F6632"/>
<path d="M71.746 55.3739C71.746 51.8519 72.701 49.0469 74.607 46.9609C76.513 44.8779 79.095 43.8359 82.357 43.8359C85.388 43.8359 87.832 44.8539 89.681 46.8899C91.533 48.9299 92.456 51.5849 92.456 54.8529C92.456 58.3929 91.507 61.2049 89.612 63.2779C87.712 65.3539 85.178 66.3919 82.001 66.3919C78.903 66.3919 76.419 65.3729 74.552 63.3349C72.682 61.2959 71.746 58.6429 71.746 55.3739ZM74.705 55.1489C74.705 57.7879 75.381 59.9039 76.726 61.4959C78.076 63.0899 79.833 63.8839 82.001 63.8839C84.333 63.8839 86.161 63.1219 87.489 61.5959C88.819 60.0689 89.483 57.9349 89.483 55.1919C89.483 52.3739 88.833 50.1979 87.532 48.6679C86.231 47.1369 84.448 46.3739 82.186 46.3739C79.959 46.3739 78.155 47.1819 76.776 48.7969C75.397 50.4099 74.705 52.5259 74.705 55.1489Z" fill="#7C9D3D"/>
<path d="M116.61 66.0239H113.27L102.293 49.0459C101.984 48.5679 101.734 48.0919 101.547 47.6219H101.463C101.539 48.1109 101.578 49.1319 101.578 50.6819V66.0239H98.787V44.2H102.322L113.002 60.8839C113.508 61.6709 113.811 62.1749 113.902 62.3909H113.959C113.865 61.7709 113.822 60.7089 113.822 59.2049V44.2H116.609V66.0239H116.61Z" fill="#7C9D3D"/>
<path d="M135.871 66.0239H124.361V44.2H127.177V63.532H135.87V66.0239H135.871Z" fill="#7C9D3D"/>
<path d="M144.102 44.2V66.0239H141.284V44.2H144.102Z" fill="#7C9D3D"/>
<path d="M169.703 66.0239H166.365L155.386 49.0459C155.077 48.5679 154.827 48.0919 154.642 47.6219H154.554C154.63 48.1109 154.669 49.1319 154.669 50.6819V66.0239H151.878V44.2H155.415L166.095 60.8839C166.603 61.6709 166.904 62.1749 166.999 62.3909H167.056C166.96 61.7709 166.913 60.7089 166.913 59.2049V44.2H169.702V66.0239H169.703Z" fill="#7C9D3D"/>
<path d="M189.192 66.0239H177.456V44.2H188.7V46.7089H180.274V53.6969H188.079V56.1899H180.274V63.532H189.192V66.0239Z" fill="#7C9D3D"/>
</svg>
