<svg width="37" height="38" viewBox="0 0 37 38" fill="none" xmlns="http://www.w3.org/2000/svg">
<path d="M36.1465 15.4571L19.7453 0.724034C19.2121 0.245073 18.51 -0.0141327 17.7856 0.000594909C17.0613 0.0153225 16.3708 0.302844 15.8585 0.803061L0.774109 15.5315L0 16.2873V38H14.5357V24.4525H22.4643V38H37V16.2238L36.1465 15.4571ZM17.8424 2.58053C17.8657 2.58053 17.8513 2.58545 17.8413 2.59505C17.831 2.58545 17.8191 2.58053 17.8424 2.58053ZM34.3571 35.4195H25.1071V24.4525C25.1071 23.7681 24.8287 23.1117 24.3331 22.6278C23.8374 22.1439 23.1652 21.872 22.4643 21.872H14.5357C13.8348 21.872 13.1626 22.1439 12.6669 22.6278C12.1713 23.1117 11.8929 23.7681 11.8929 24.4525V35.4195H2.64286V17.3561L17.8424 2.6277L17.8444 2.62488L34.3571 17.3561V35.4195Z" fill="#162D18"/>
</svg>
