<svg width="21" height="22" viewBox="0 0 21 22" fill="none" xmlns="http://www.w3.org/2000/svg">
<path d="M19.4285 17.7721C18.9212 16.5496 18.1851 15.4392 17.2611 14.5027C16.3399 13.5635 15.2487 12.8147 14.0477 12.2976C14.0369 12.2922 14.0262 12.2894 14.0154 12.284C15.6907 11.0528 16.7798 9.04745 16.7798 6.7849C16.7798 3.03679 13.7949 0 10.1109 0C6.42691 0 3.44206 3.03679 3.44206 6.7849C3.44206 9.04745 4.53112 11.0528 6.2064 12.2867C6.19565 12.2922 6.18489 12.2949 6.17414 12.3004C4.96944 12.8174 3.88844 13.5589 2.96072 14.5055C2.03759 15.4427 1.30158 16.5529 0.793338 17.7748C0.29404 18.9711 0.024758 20.2536 6.72425e-05 21.553C-0.00065048 21.5822 0.0043835 21.6113 0.0148727 21.6384C0.0253619 21.6656 0.0410941 21.6904 0.0611421 21.7113C0.0811902 21.7322 0.105149 21.7488 0.131605 21.7602C0.158062 21.7715 0.186483 21.7774 0.215192 21.7773H1.82862C1.94694 21.7773 2.04106 21.6816 2.04375 21.564C2.09753 19.4519 2.93114 17.4739 4.40474 15.9746C5.92943 14.4234 7.95429 13.5698 10.1109 13.5698C12.2675 13.5698 14.2924 14.4234 15.8171 15.9746C17.2907 17.4739 18.1243 19.4519 18.1781 21.564C18.1808 21.6843 18.2749 21.7773 18.3932 21.7773H20.0066C20.0353 21.7774 20.0638 21.7715 20.0902 21.7602C20.1167 21.7488 20.1406 21.7322 20.1607 21.7113C20.1807 21.6904 20.1965 21.6656 20.2069 21.6384C20.2174 21.6113 20.2225 21.5822 20.2218 21.553C20.1949 20.2453 19.9286 18.9731 19.4285 17.7721ZM10.1109 11.4906C8.87664 11.4906 7.71496 11.0008 6.84102 10.1117C5.96708 9.22254 5.48574 8.04066 5.48574 6.7849C5.48574 5.52915 5.96708 4.34726 6.84102 3.45811C7.71496 2.56896 8.87664 2.07924 10.1109 2.07924C11.3452 2.07924 12.5069 2.56896 13.3808 3.45811C14.2547 4.34726 14.7361 5.52915 14.7361 6.7849C14.7361 8.04066 14.2547 9.22254 13.3808 10.1117C12.5069 11.0008 11.3452 11.4906 10.1109 11.4906Z" fill="#162D18"/>
</svg>
