<svg width="24" height="24" viewBox="0 0 24 24" fill="none" xmlns="http://www.w3.org/2000/svg">
<path d="M10.6491 6.06488L7.22856 2.11659C6.83424 1.6616 6.11131 1.66362 5.65329 2.12265L2.84045 4.94055C2.00327 5.77874 1.76364 7.02339 2.24795 8.02133C5.14129 14.012 9.97269 18.8501 15.9593 21.7519C16.9562 22.2362 18.1998 21.9966 19.037 21.1584L21.8762 18.3142C22.3362 17.8541 22.3372 17.1272 21.8782 16.7328L17.9147 13.3305C17.5002 12.9746 16.8561 13.0211 16.4406 13.4377L15.0614 14.8189C14.9908 14.8929 14.8979 14.9416 14.7969 14.9577C14.6959 14.9738 14.5924 14.9563 14.5023 14.9078C12.248 13.6097 10.3781 11.7373 9.08289 9.48134C9.03438 9.3911 9.01682 9.28744 9.03289 9.18626C9.04897 9.08508 9.09779 8.99196 9.17187 8.92119L10.5469 7.54511C10.9635 7.12652 11.009 6.47942 10.6491 6.06387V6.06488Z" stroke="#162D18" stroke-width="2.6" stroke-linecap="round" stroke-linejoin="round"/>
</svg>
