<svg width="35" height="38" viewBox="0 0 35 38" fill="none" xmlns="http://www.w3.org/2000/svg">
<path d="M33.6269 31.0111C32.7489 28.878 31.4748 26.9404 29.8756 25.3063C28.2812 23.6675 26.3925 22.3608 24.3138 21.4585C24.2952 21.449 24.2766 21.4442 24.2579 21.4347C27.1575 19.2864 29.0425 15.7872 29.0425 11.8392C29.0425 5.299 23.8763 0 17.5 0C11.1237 0 5.95752 5.299 5.95752 11.8392C5.95752 15.7872 7.84248 19.2864 10.7421 21.4394C10.7234 21.449 10.7048 21.4538 10.6862 21.4633C8.60112 22.3656 6.73013 23.6593 5.12442 25.3111C3.52667 26.9464 2.25278 28.8837 1.37311 31.0158C0.508926 33.1032 0.0428511 35.3412 0.000116384 37.6085C-0.00112585 37.6595 0.00758698 37.7102 0.0257417 37.7576C0.0438965 37.8051 0.0711257 37.8483 0.105825 37.8848C0.140524 37.9213 0.181991 37.9503 0.227783 37.97C0.273575 37.9898 0.322765 38 0.372454 38H3.16499C3.36977 38 3.53267 37.8329 3.53733 37.6276C3.63041 33.9422 5.07322 30.4907 7.62373 27.8746C10.2627 25.1678 13.7673 23.6784 17.5 23.6784C21.2327 23.6784 24.7373 25.1678 27.3763 27.8746C29.9268 30.4907 31.3696 33.9422 31.4627 37.6276C31.4673 37.8377 31.6302 38 31.835 38H34.6275C34.6772 38 34.7264 37.9898 34.7722 37.97C34.818 37.9503 34.8595 37.9213 34.8942 37.8848C34.9289 37.8483 34.9561 37.8051 34.9743 37.7576C34.9924 37.7102 35.0011 37.6595 34.9999 37.6085C34.9533 35.3266 34.4926 33.1068 33.6269 31.0111ZM17.5 20.0503C15.3637 20.0503 13.3531 19.1957 11.8405 17.6442C10.3278 16.0927 9.49473 14.0304 9.49473 11.8392C9.49473 9.64799 10.3278 7.58568 11.8405 6.03417C13.3531 4.48266 15.3637 3.62814 17.5 3.62814C19.6363 3.62814 21.6469 4.48266 23.1595 6.03417C24.6722 7.58568 25.5053 9.64799 25.5053 11.8392C25.5053 14.0304 24.6722 16.0927 23.1595 17.6442C21.6469 19.1957 19.6363 20.0503 17.5 20.0503Z" fill="#D6DDD6"/>
</svg>
