<svg width="39" height="39" viewBox="0 0 39 39" fill="none" xmlns="http://www.w3.org/2000/svg">
<path d="M34.1015 27.8811L34.195 22.265C34.207 21.5456 33.9326 20.8509 33.4321 20.3337C32.9316 19.8166 32.2461 19.5193 31.5263 19.5073L20.6707 19.3264L20.7611 13.9015L23.475 13.9467C24.1946 13.958 24.8892 13.6835 25.4065 13.1834C25.9238 12.6834 26.2214 11.9986 26.2341 11.2795L26.3697 3.14211C26.381 2.42293 26.1063 1.72866 25.606 1.21165C25.1057 0.69464 24.4206 0.397137 23.701 0.384427L15.5593 0.248747C14.8398 0.237474 14.1451 0.511984 13.6278 1.01203C13.1106 1.51208 12.8129 2.19682 12.8002 2.91598L12.6646 11.0533C12.6533 11.7725 12.928 12.4668 13.4283 12.9838C13.9287 13.5008 14.6138 13.7983 15.3333 13.811L18.0472 13.8563L17.9568 19.2812L7.10118 19.1003C6.3814 19.0883 5.68635 19.3625 5.16891 19.8627C4.65148 20.363 4.35405 21.0481 4.34207 21.7675L4.24845 27.385C2.96381 27.6938 1.83594 28.4602 1.07628 29.5407C0.316609 30.6212 -0.0227085 31.9415 0.121926 33.2541C0.266561 34.5667 0.885219 35.7816 1.86194 36.671C2.83865 37.5603 4.10637 38.0632 5.42747 38.0852C6.74856 38.1072 8.03233 37.6469 9.03814 36.7906C10.0439 35.9342 10.7027 34.7406 10.891 33.4336C11.0793 32.1265 10.7842 30.7956 10.0609 29.6904C9.3377 28.5852 8.236 27.7816 6.96236 27.4302L7.05597 21.8127L17.9116 21.9936L17.818 27.6111C16.5333 27.9199 15.4055 28.6864 14.6458 29.7668C13.8861 30.8473 13.5468 32.1676 13.6915 33.4802C13.8361 34.7929 14.4548 36.0077 15.4315 36.8971C16.4082 37.7865 17.6759 38.2893 18.997 38.3113C20.3181 38.3333 21.6019 37.873 22.6077 37.0167C23.6135 36.1604 24.2723 34.9668 24.4606 33.6597C24.6489 32.3526 24.3537 31.0217 23.6305 29.9166C22.9072 28.8114 21.8055 28.0078 20.5319 27.6564L20.6255 22.0389L31.4811 22.2198L31.3875 27.8359C30.1029 28.1447 28.975 28.9111 28.2154 29.9916C27.4557 31.0721 27.1164 32.3924 27.261 33.705C27.4057 35.0176 28.0243 36.2325 29.001 37.1219C29.9777 38.0113 31.2455 38.5141 32.5666 38.5361C33.8877 38.5581 35.1714 38.0978 36.1772 37.2415C37.183 36.3851 37.8418 35.1916 38.0301 33.8845C38.2184 32.5774 37.9233 31.2465 37.2 30.1413C36.4768 29.0362 35.3751 28.2326 34.1015 27.8811ZM15.5141 2.9612L23.6558 3.09688L23.5216 11.2343L15.3785 11.0986L15.5141 2.9612ZM8.23212 32.6852C8.22318 33.2216 8.05527 33.7434 7.74963 34.1845C7.44399 34.6256 7.01434 34.9662 6.51502 35.1632C6.01569 35.3603 5.46912 35.4049 4.94442 35.2915C4.41972 35.178 3.94045 34.9116 3.56722 34.526C3.194 34.1403 2.94358 33.6527 2.84763 33.1248C2.75168 32.5968 2.81452 32.0524 3.02818 31.5601C3.24185 31.0679 3.59676 30.6501 4.04803 30.3595C4.49929 30.0689 5.02665 29.9185 5.56341 29.9275C6.28295 29.9402 6.96806 30.2377 7.46839 30.7547C7.96871 31.2717 8.24338 31.966 8.23212 32.6852ZM21.8017 32.9113C21.7927 33.4478 21.6248 33.9695 21.3192 34.4106C21.0135 34.8517 20.5839 35.1923 20.0846 35.3894C19.5852 35.5864 19.0387 35.631 18.514 35.5176C17.9893 35.4042 17.51 35.1378 17.1368 34.7521C16.7635 34.3664 16.5131 33.8788 16.4172 33.3509C16.3212 32.823 16.384 32.2785 16.5977 31.7863C16.8114 31.2941 17.1663 30.8762 17.6176 30.5856C18.0688 30.295 18.5962 30.1447 19.1329 30.1536C19.8524 30.1667 20.5373 30.4643 21.0375 30.9812C21.5378 31.4982 21.8126 32.1922 21.8017 32.9113ZM32.6121 35.8047C32.0753 35.7957 31.5533 35.6279 31.1119 35.3224C30.6706 35.0169 30.3298 34.5875 30.1327 34.0884C29.9355 33.5894 29.8909 33.0431 30.0043 32.5187C30.1178 31.9943 30.3844 31.5153 30.7702 31.1422C31.1561 30.7692 31.644 30.5189 32.1722 30.423C32.7003 30.3272 33.2451 30.39 33.7376 30.6035C34.2301 30.8171 34.6482 31.1718 34.9389 31.6229C35.2297 32.0739 35.3801 32.601 35.3712 33.1374C35.3585 33.8566 35.0608 34.5413 34.5436 35.0414C34.0263 35.5414 33.3316 35.8159 32.6121 35.8047Z" fill="#162D18"/>
</svg>
