<svg width="56" height="69" viewBox="0 0 56 69" fill="none" xmlns="http://www.w3.org/2000/svg">
<path d="M49.9059 3.76367H6.58097C5.76022 3.76367 4.97308 4.08971 4.39273 4.67007C3.81237 5.25043 3.48633 6.03756 3.48633 6.85831V62.5618C3.48633 63.3825 3.81237 64.1697 4.39273 64.75C4.97308 65.3304 5.76022 65.6564 6.58097 65.6564H49.9059C50.7266 65.6564 51.5138 65.3304 52.0941 64.75C52.6745 64.1697 53.0005 63.3825 53.0005 62.5618V6.85831C53.0005 6.03756 52.6745 5.25043 52.0941 4.67007C51.5138 4.08971 50.7266 3.76367 49.9059 3.76367V3.76367Z" stroke="#162D18" stroke-width="6" stroke-linecap="round" stroke-linejoin="round"/>
<path d="M17.6123 43.9937H39.2748" stroke="#162D18" stroke-width="6" stroke-linecap="round" stroke-linejoin="round"/>
<path d="M17.6123 53.2778H28.4435" stroke="#162D18" stroke-width="6" stroke-linecap="round" stroke-linejoin="round"/>
<path d="M17.6123 16.1418H39.2748V31.615H17.6123V16.1418Z" stroke="#162D18" stroke-width="6" stroke-linecap="round" stroke-linejoin="round"/>
</svg>
