<svg width="36" height="32" viewBox="0 0 36 32" fill="none" xmlns="http://www.w3.org/2000/svg">
<path d="M1.10652 20.7322C1.40025 20.7322 1.68195 20.846 1.88965 21.0486C2.09734 21.2513 2.21403 21.5261 2.21403 21.8127V27.2151C2.21403 27.7882 2.44739 28.3379 2.86278 28.7432C3.27818 29.1484 3.84157 29.3761 4.42903 29.3761H31.009C31.5965 29.3761 32.1599 29.1484 32.5753 28.7432C32.9907 28.3379 33.2241 27.7882 33.2241 27.2151V21.8127C33.2241 21.5261 33.3407 21.2513 33.5484 21.0486C33.7561 20.846 34.0378 20.7322 34.3316 20.7322C34.6253 20.7322 34.907 20.846 35.1147 21.0486C35.3224 21.2513 35.4391 21.5261 35.4391 21.8127V27.2151C35.4391 28.3614 34.9723 29.4607 34.1415 30.2712C33.3107 31.0817 32.184 31.5371 31.009 31.5371H4.42903C3.25412 31.5371 2.12733 31.0817 1.29654 30.2712C0.465755 29.4607 -0.000976562 28.3614 -0.000976562 27.2151V21.8127C-0.000976562 21.5261 0.115706 21.2513 0.323403 21.0486C0.5311 20.846 0.812797 20.7322 1.10652 20.7322Z" fill="#162D18"/>
<path d="M16.9323 1.1745C17.0355 1.07205 17.1581 0.990777 17.2931 0.93532C17.4281 0.879864 17.5728 0.851318 17.719 0.851318C17.8651 0.851318 18.0098 0.879864 18.1448 0.93532C18.2798 0.990777 18.4025 1.07205 18.5057 1.1745L25.1726 7.77476C25.3813 7.98132 25.4985 8.26148 25.4985 8.5536C25.4985 8.84571 25.3813 9.12587 25.1726 9.33243C24.964 9.53899 24.681 9.65503 24.3859 9.65503C24.0909 9.65503 23.8079 9.53899 23.5992 9.33243L18.8301 4.60884V23.9542C18.8301 24.246 18.7131 24.5258 18.5047 24.7321C18.2963 24.9384 18.0137 25.0543 17.719 25.0543C17.4243 25.0543 17.1416 24.9384 16.9333 24.7321C16.7249 24.5258 16.6078 24.246 16.6078 23.9542V4.60884L11.8387 9.33243C11.7354 9.43471 11.6128 9.51584 11.4778 9.57119C11.3428 9.62654 11.1981 9.65503 11.052 9.65503C10.9059 9.65503 10.7612 9.62654 10.6263 9.57119C10.4913 9.51584 10.3686 9.43471 10.2653 9.33243C10.162 9.23015 10.0801 9.10873 10.0241 8.9751C9.96823 8.84146 9.93945 8.69824 9.93945 8.5536C9.93945 8.40895 9.96823 8.26573 10.0241 8.1321C10.0801 7.99846 10.162 7.87704 10.2653 7.77476L16.9323 1.1745Z" fill="#162D18"/>
</svg>
