<svg width="38" height="38" viewBox="0 0 38 38" fill="none" xmlns="http://www.w3.org/2000/svg">
<path d="M36.48 0H1.52C0.67925 0 0 0.67925 0 1.52V36.48C0 37.3208 0.67925 38 1.52 38H36.48C37.3208 38 38 37.3208 38 36.48V1.52C38 0.67925 37.3208 0 36.48 0ZM34.58 22.04H19.76V15.96H34.58V22.04ZM34.58 34.58H3.42V3.42H34.58V12.92H18.24C17.3993 12.92 16.72 13.5992 16.72 14.44V23.56C16.72 24.4007 17.3993 25.08 18.24 25.08H34.58V34.58ZM22.23 19C22.23 19.5039 22.4302 19.9872 22.7865 20.3435C23.1428 20.6998 23.6261 20.9 24.13 20.9C24.6339 20.9 25.1172 20.6998 25.4735 20.3435C25.8298 19.9872 26.03 19.5039 26.03 19C26.03 18.4961 25.8298 18.0128 25.4735 17.6565C25.1172 17.3002 24.6339 17.1 24.13 17.1C23.6261 17.1 23.1428 17.3002 22.7865 17.6565C22.4302 18.0128 22.23 18.4961 22.23 19Z" fill="#D6DDD6"/>
</svg>
